<?xml version="1.0" encoding="UTF-8" standalone="no"?>
<!DOCTYPE svg PUBLIC "-//W3C//DTD SVG 1.1//EN" "http://www.w3.org/Graphics/SVG/1.1/DTD/svg11.dtd">
<svg width="100%" height="100%" viewBox="0 0 24 24" version="1.1" xmlns="http://www.w3.org/2000/svg" xmlns:xlink="http://www.w3.org/1999/xlink" xml:space="preserve" xmlns:serif="http://www.serif.com/" style="fill-rule:evenodd;clip-rule:evenodd;stroke-linejoin:round;stroke-miterlimit:2;">
    <g transform="matrix(0.0463269,0,0,0.0463269,0.140325,0.134534)">
        <path d="M231,474C225,473 221,469 221,462C219,451 217,442 214,437C211,430 199,418 192,415C175,407 155,410 139,423C131,430 127,431 121,428C116,425 91,401 86,394C80,385 81,384 89,371C99,356 102,346 100,332C96,310 79,294 56,291C48,290 44,288 41,285C38,282 37,271 37,252C38,234 39,226 43,223C44,222 49,220 56,219C69,217 75,214 83,209C96,200 104,182 101,164C100,155 97,148 90,140C82,131 81,128 84,122C86,117 113,89 120,84C127,80 130,80 136,84C154,97 157,99 171,100C196,102 217,84 221,56C223,42 225,40 236,38C244,37 269,37 278,38C289,40 291,42 293,59C295,75 305,90 319,97C325,100 326,100 335,101C341,101 347,101 351,100C357,99 369,93 376,87C387,79 391,81 410,100C423,114 429,122 430,126C430,130 428,134 421,145C414,153 412,159 411,171C410,186 414,195 427,207C434,214 441,218 452,220C464,222 469,224 471,227C474,231 475,245 475,262C474,287 472,290 458,292C441,294 433,298 423,308C413,320 409,332 411,347C412,357 415,364 422,372C424,376 427,379 428,381C430,384 429,389 427,393C422,401 392,429 386,431C383,432 380,430 372,424C362,417 358,415 350,413C320,407 297,424 291,456C288,475 288,474 258,475C246,475 233,474 231,474ZM284,398C290,397 299,394 304,393C312,390 332,380 332,379C332,379 323,369 311,358L291,337L282,340C272,343 255,344 244,343C207,338 178,311 170,274C168,266 168,249 170,239C172,230 175,226 180,226C183,226 182,225 214,256L230,271L237,271C248,270 261,267 264,266C266,264 269,254 270,241C270,235 270,233 268,230C267,228 259,218 249,209C239,199 230,189 229,187C225,183 225,178 228,175C233,170 247,168 260,169C284,170 303,180 319,197C341,221 348,252 338,283L336,291L357,311C368,323 378,332 379,332C380,332 390,313 393,304C399,287 400,275 400,256C400,242 400,237 398,228C392,199 380,176 360,155C339,134 315,120 284,114C269,111 243,111 228,114C197,120 173,134 152,155C132,176 120,199 114,228C111,243 111,269 114,284C120,315 134,339 155,360C179,383 207,396 240,400C251,401 273,400 284,398Z" fill-rule="nonzero" fill="#000"/>
    </g>
</svg>
